<svg xmlns="http://www.w3.org/2000/svg" xmlns:xlink="http://www.w3.org/1999/xlink" width="140" zoomAndPan="magnify" viewBox="0 0 104.88 104.999996" height="140" preserveAspectRatio="xMidYMid meet" version="1.0"><defs><clipPath id="061d8d9e3a"><path d="M 27 0.0585938 L 68 0.0585938 L 68 20 L 27 20 Z M 27 0.0585938 " clip-rule="nonzero"/></clipPath><clipPath id="1d29aad1f8"><path d="M 39 84 L 78 84 L 78 104.9375 L 39 104.9375 Z M 39 84 " clip-rule="nonzero"/></clipPath><clipPath id="d9c9a430fc"><path d="M 2 69 L 43 69 L 43 104.9375 L 2 104.9375 Z M 2 69 " clip-rule="nonzero"/></clipPath><clipPath id="037b796c38"><path d="M 89 16 L 104.761719 16 L 104.761719 83 L 89 83 Z M 89 16 " clip-rule="nonzero"/></clipPath></defs><path fill="#1b4680" d="M 54.898438 20.910156 C 64.734375 24.132812 73.410156 29.894531 80.203125 37.394531 C 81.324219 36.390625 82.652344 35.804688 84.078125 35.804688 C 84.5 35.804688 84.910156 35.863281 85.308594 35.960938 C 87.824219 28.941406 88.71875 21.378906 87.566406 13.6875 C 87.5625 13.640625 87.546875 13.59375 87.542969 13.546875 C 82.949219 9.410156 77.625 6.074219 71.785156 3.753906 C 65.546875 8.382812 59.816406 14.152344 54.898438 20.910156 Z M 54.898438 20.910156 " fill-opacity="1" fill-rule="nonzero"/><g clip-path="url(#061d8d9e3a)"><path fill="#1b4680" d="M 31.117188 18.261719 C 32.914062 18.09375 34.730469 17.976562 36.570312 17.976562 C 41.242188 17.976562 45.78125 18.53125 50.136719 19.558594 C 55.171875 12.710938 61.046875 6.886719 67.433594 2.246094 C 62.683594 0.828125 57.652344 0.0585938 52.4375 0.0585938 C 46.367188 0.0585938 40.539062 1.105469 35.117188 3.003906 C 32.203125 6.949219 29.792969 11.28125 27.929688 15.894531 C 29.304688 16.375 30.425781 17.191406 31.117188 18.261719 Z M 31.117188 18.261719 " fill-opacity="1" fill-rule="nonzero"/></g><path fill="#1b4680" d="M 25.289062 27.421875 C 25.042969 27.480469 24.800781 27.527344 24.558594 27.566406 C 23.972656 30.875 23.652344 34.273438 23.652344 37.75 C 23.652344 47.765625 26.195312 57.167969 30.628906 65.40625 C 31.585938 65.285156 32.578125 65.285156 33.582031 65.394531 C 34.117188 55.050781 36.695312 44.335938 41.5625 33.988281 C 43.121094 30.671875 44.867188 27.519531 46.761719 24.523438 C 42.546875 23.5625 38.160156 23.054688 33.652344 23.054688 C 32.847656 23.054688 32.050781 23.101562 31.253906 23.136719 C 30.246094 25.097656 28.070312 26.761719 25.289062 27.421875 Z M 25.289062 27.421875 " fill-opacity="1" fill-rule="nonzero"/><path fill="#1b4680" d="M 51.558594 25.855469 C 49.742188 28.757812 48.0625 31.808594 46.554688 35.011719 C 41.601562 45.542969 39.027344 56.453125 38.5625 66.960938 C 40.480469 68.007812 42.03125 69.453125 43.117188 71.101562 C 57.4375 68.050781 69.496094 60.316406 77.511719 50.050781 C 77.101562 48.785156 76.867188 47.378906 76.867188 45.898438 C 76.867188 44.699219 77.023438 43.550781 77.296875 42.484375 C 70.402344 34.871094 61.574219 29.054688 51.558594 25.855469 Z M 51.558594 25.855469 " fill-opacity="1" fill-rule="nonzero"/><path fill="#1b4680" d="M 22.703125 71.03125 C 23.320312 69.5625 24.320312 68.355469 25.554688 67.421875 C 21.144531 59.199219 18.625 49.808594 18.625 39.820312 C 18.625 35.511719 19.140625 31.328125 20.03125 27.289062 C 18.863281 26.910156 17.863281 26.292969 17.144531 25.484375 C 12.789062 26.753906 8.632812 28.496094 4.757812 30.679688 C 1.710938 37.324219 0 44.710938 0 52.5 C 0 56.976562 0.5625 61.320312 1.617188 65.464844 C 7.855469 68.847656 14.886719 71.113281 22.351562 72.039062 C 22.445312 71.699219 22.5625 71.363281 22.703125 71.03125 Z M 22.703125 71.03125 " fill-opacity="1" fill-rule="nonzero"/><path fill="#1b4680" d="M 84.078125 55.992188 C 83.042969 55.992188 82.058594 55.679688 81.167969 55.128906 C 72.867188 65.972656 60.082031 74.070312 44.875 76.902344 C 44.851562 77.992188 44.640625 79.078125 44.203125 80.121094 C 43.984375 80.632812 43.710938 81.109375 43.40625 81.5625 C 53.527344 90.535156 66.761719 96.058594 81.296875 96.277344 C 85.445312 93.539062 89.179688 90.226562 92.390625 86.453125 C 92.503906 84.976562 92.582031 83.488281 92.582031 81.984375 C 92.582031 72.457031 90.273438 63.484375 86.253906 55.523438 C 85.566406 55.824219 84.835938 55.992188 84.078125 55.992188 Z M 84.078125 55.992188 " fill-opacity="1" fill-rule="nonzero"/><g clip-path="url(#1d29aad1f8)"><path fill="#1b4680" d="M 39.875 84.914062 C 41.332031 92.082031 43.882812 98.777344 47.441406 104.695312 C 49.089844 104.851562 50.753906 104.941406 52.441406 104.941406 C 61.679688 104.941406 70.351562 102.542969 77.886719 98.351562 C 77.648438 98.355469 77.414062 98.375 77.179688 98.375 C 62.992188 98.371094 50.003906 93.308594 39.875 84.914062 Z M 39.875 84.914062 " fill-opacity="1" fill-rule="nonzero"/></g><g clip-path="url(#d9c9a430fc)"><path fill="#1b4680" d="M 29.5625 84.785156 C 25.859375 83.222656 23.273438 80.242188 22.371094 76.988281 C 15.328125 75.710938 8.734375 73.230469 2.917969 69.746094 C 9.011719 87.246094 24.105469 100.519531 42.65625 104.019531 C 39.316406 98.554688 36.855469 92.402344 35.324219 85.828125 C 33.449219 85.921875 31.476562 85.59375 29.5625 84.785156 Z M 29.5625 84.785156 " fill-opacity="1" fill-rule="nonzero"/></g><path fill="#1b4680" d="M 22.5 15.699219 C 22.992188 15.582031 23.480469 15.507812 23.964844 15.457031 C 25.660156 11.769531 27.714844 8.28125 30.105469 5.050781 C 20.601562 9.53125 12.664062 16.78125 7.332031 25.761719 C 10.078125 24.1875 12.972656 22.839844 15.976562 21.71875 C 16.34375 19.050781 18.929688 16.550781 22.5 15.699219 Z M 22.5 15.699219 " fill-opacity="1" fill-rule="nonzero"/><g clip-path="url(#037b796c38)"><path fill="#1b4680" d="M 104.878906 52.5 C 104.878906 38.484375 99.371094 25.765625 90.414062 16.359375 C 90.613281 17.28125 90.785156 18.214844 90.925781 19.160156 C 91.949219 26.015625 91.347656 32.769531 89.421875 39.132812 C 90.582031 40.921875 91.292969 43.292969 91.292969 45.898438 C 91.292969 48.132812 90.769531 50.1875 89.890625 51.859375 C 93.472656 59.464844 95.496094 67.941406 95.496094 76.902344 C 95.496094 78.914062 95.386719 80.894531 95.1875 82.855469 C 101.28125 74.285156 104.878906 63.816406 104.878906 52.5 Z M 104.878906 52.5 " fill-opacity="1" fill-rule="nonzero"/></g><path fill="#1b4680" d="M 31.417969 80.382812 C 34.515625 81.691406 37.933594 80.601562 39.054688 77.949219 C 40.175781 75.300781 38.574219 72.089844 35.476562 70.78125 C 32.382812 69.472656 28.964844 70.558594 27.84375 73.210938 C 26.722656 75.863281 28.324219 79.074219 31.417969 80.382812 Z M 31.417969 80.382812 " fill-opacity="1" fill-rule="nonzero"/><path fill="#1b4680" d="M 84.078125 50.175781 C 85.765625 50.175781 87.136719 48.257812 87.136719 45.898438 C 87.136719 43.535156 85.765625 41.621094 84.078125 41.621094 C 82.390625 41.621094 81.023438 43.535156 81.023438 45.898438 C 81.023438 48.257812 82.390625 50.175781 84.078125 50.175781 Z M 84.078125 50.175781 " fill-opacity="1" fill-rule="nonzero"/><path fill="#1b4680" d="M 24.488281 24.054688 C 26.328125 23.613281 27.558594 22.140625 27.230469 20.765625 C 26.898438 19.386719 25.140625 18.625 23.296875 19.066406 C 21.453125 19.503906 20.226562 20.976562 20.554688 22.355469 C 20.882812 23.734375 22.644531 24.492188 24.488281 24.054688 Z M 24.488281 24.054688 " fill-opacity="1" fill-rule="nonzero"/></svg>